<?xml version="1.0" encoding="UTF-8"?>
<!DOCTYPE svg PUBLIC "-//W3C//DTD SVG 1.1//EN" "http://www.w3.org/Graphics/SVG/1.1/DTD/svg11.dtd">
<!-- Creator: CorelDRAW 2021 (64-Bit) -->
<svg xmlns="http://www.w3.org/2000/svg" xml:space="preserve" width="82.0284mm" height="14.552mm" version="1.1" style="shape-rendering:geometricPrecision; text-rendering:geometricPrecision; image-rendering:optimizeQuality; fill-rule:evenodd; clip-rule:evenodd"
viewBox="0 0 6568.34 1165.24"
 xmlns:xlink="http://www.w3.org/1999/xlink"
 xmlns:xodm="http://www.corel.com/coreldraw/odm/2003">
 <defs>
  <style type="text/css">
   <![CDATA[
    .fil0 {fill:#242DB0}
    .fil1 {fill:#242DB0;fill-rule:nonzero}
   ]]>
  </style>
 </defs>
 <g id="Capa_x0020_1">
  <metadata id="CorelCorpID_0Corel-Layer"/>
  <path class="fil0" d="M5985.72 1165.24c321.77,0 582.62,-260.85 582.62,-582.62 0,-31.56 -2.51,-62.54 -7.33,-92.73 -8.38,24.99 -18.1,50.21 -29.2,75.65 -31.96,71.44 -70.03,136.77 -114.21,196 -62.04,85.54 -123.15,150.88 -183.31,196 -59.22,45.12 -121.27,67.69 -186.13,67.69 -52.64,0 -94.94,-6.11 -126.9,-18.34 -0.37,-79.35 -0.29,-86.92 -0.17,-98.27 0.06,-6.29 0.14,-13.74 0.16,-35.2 -30.96,33.23 -61.67,61.27 -92.15,84.13 -59.22,45.12 -121.26,67.69 -186.12,67.69 -13.14,0 -25.63,-0.38 -37.48,-1.15 102.05,87.98 234.93,141.16 380.23,141.16zm-472.2 -241.26c-5.05,-152.49 -10.79,-258.81 -17.2,-318.95 -6.57,-70.51 -12.69,-125.03 -18.33,-163.57 -5.14,-41.13 -13.09,-73.68 -23.85,-97.66 -32.8,72.88 -51.04,153.72 -51.04,238.82 0,127.49 40.95,245.43 110.42,341.36zm-11.03 -666.95c104.69,-155.06 282.05,-257.02 483.22,-257.02 198,0 372.92,98.76 478.2,249.71 -0.87,-0.02 -1.75,-0.02 -2.62,-0.02 -53.59,0 -95.89,17.39 -126.91,52.17 3.76,14.1 5.65,38.08 5.65,71.91 0,33.84 -2.35,66.74 -7.05,98.7 -15.04,105.29 -43.71,201.64 -86.02,289.06 -31.02,62.99 -61.1,104.82 -90.24,125.5 5.65,-88.37 8.46,-169.21 8.46,-242.53 0,-31.04 3.86,-75.57 7.81,-121.19l0 0c4.84,-55.93 9.83,-113.48 8.02,-149.73 0.4,-6.57 0.59,-13.08 0.59,-19.55 0,-33.85 -12.68,-59.7 -38.07,-77.55 -25.38,-17.86 -54.52,-26.79 -87.42,-26.79 -53.58,0 -95.88,17.39 -126.9,52.17 3.76,14.1 5.64,38.08 5.64,71.91 0,33.84 -2.35,66.74 -7.05,98.7 -15.05,105.29 -43.71,201.64 -86.02,289.06 -31.02,62.99 -61.1,104.82 -90.24,125.5 5.64,-88.37 8.46,-169.21 8.46,-242.53 0,-73.32 -3.29,-140.07 -9.87,-200.22 -5.64,-61.1 -23.97,-108.58 -54.99,-142.42 -31.02,-34.78 -68.62,-52.17 -112.8,-52.17 -32.85,0 -59.46,2.44 -79.84,7.33z"/>
  <g id="_1806850676832">
   <path class="fil1" d="M-0 374.31c15.13,-31.64 43.55,-47.46 85.27,-47.46 42.25,0 73.02,12.4 92.32,37.18 19.82,24.25 29.73,64.6 29.73,121.02l0 282.36 190.1 -423.94 93.09 0 -243.3 521.23 -183.07 0 -23.47 -379.65c-1.57,-27.95 -6.26,-51.42 -14.09,-70.39 -7.3,-18.99 -16.17,-32.43 -26.6,-40.34z"/>
   <path class="fil1" d="M647.22 821.19c-16.17,39.55 -50.07,59.33 -101.7,59.33 -26.6,0 -48.24,-9.23 -64.93,-27.69 -14.09,-16.34 -21.12,-32.69 -21.12,-49.04 0,-42.71 9.65,-105.72 28.95,-189.04l28.95 -153.45 158.81 -15.81 -47.72 249.94c-8.86,39.02 -13.3,65.38 -13.3,79.09 0,30.06 10.69,45.62 32.08,46.67zm-115.79 -469.83c0,-20.56 8.35,-36.38 25.04,-47.45 17.21,-11.07 38.08,-16.62 62.59,-16.62 24.51,0 44.07,5.54 58.67,16.62 15.13,11.07 22.69,26.89 22.69,47.45 0,20.57 -8.35,36.12 -25.04,46.67 -16.17,10.55 -36.51,15.82 -61.02,15.82 -24.51,0 -44.59,-5.28 -60.23,-15.82 -15.13,-10.55 -22.69,-26.1 -22.69,-46.67z"/>
   <path class="fil1" d="M958.74 642.44c18.78,-33.75 28.16,-67.77 28.16,-102.04 0,-22.68 -8.09,-34.01 -24.25,-34.01 -12.52,0 -25.3,10.81 -38.33,32.43 -13.56,21.61 -22.43,46.4 -26.6,74.35l-40.68 251.52 -161.94 15.82 79.79 -419.21 129.09 -15.81 -14.09 79.88c25.56,-53.26 67.02,-79.88 124.39,-79.88 30.24,0 53.46,7.91 69.62,23.73 16.69,15.82 25.03,40.08 25.03,72.77 0,32.17 -10.69,58.53 -32.07,79.1 -20.87,20.56 -49.29,30.84 -85.28,30.84 -15.65,0 -26.59,-3.16 -32.85,-9.49z"/>
   <path class="fil1" d="M1134.36 785.6c0,-14.24 3.65,-39.28 10.95,-75.14l41.46 -213.56 -46.15 0 3.12 -23.73c62.59,-18.99 124.13,-51.67 184.63,-98.07l37.55 0 -18.77 86.21 61.02 0 -7.04 35.59 -60.24 0 -39.9 213.56c-6.78,32.69 -10.17,54.58 -10.17,65.65 0,25.31 10.95,40.6 32.86,45.87 -5.22,17.93 -17.22,32.17 -35.99,42.71 -18.77,10.55 -41.46,15.82 -68.06,15.82 -26.6,0 -47.46,-8.44 -62.59,-25.31 -15.13,-16.87 -22.68,-40.08 -22.68,-69.61z"/>
   <path class="fil1" d="M1655.65 831.47c-25.04,32.69 -68.59,49.05 -130.66,49.05 -32.33,0 -60.23,-9.75 -83.7,-29.27 -23.47,-20.03 -35.21,-44.3 -35.21,-72.77 0,-15.81 0.78,-27.68 2.35,-35.59l52.42 -281.58 158.81 -15.81 -57.11 305.31c-2.08,11.6 -3.13,20.83 -3.13,27.68 0,30.59 9.13,45.87 27.39,45.87 20.34,0 37.81,-13.97 52.42,-41.92 4.69,-8.96 8.08,-19.24 10.17,-30.84l55.55 -290.28 154.12 -15.81 -57.89 308.47c-1.57,7.91 -2.35,16.09 -2.35,24.52 0,8.44 2.35,17.4 7.04,26.9 4.69,8.96 14.61,14.5 29.73,16.61 -3.13,12.66 -10.17,23.2 -21.12,31.64 -22.95,17.93 -46.94,26.9 -71.98,26.9 -24.51,0 -44.07,-4.48 -58.67,-13.45 -14.61,-8.96 -23.99,-20.83 -28.16,-35.59z"/>
   <path class="fil1" d="M1931.7 840.97c-12,-13.71 -20.86,-31.38 -26.6,-52.99 -5.21,-21.62 -7.82,-50.09 -7.82,-85.42 0,-35.34 6,-69.08 17.99,-101.25 12,-32.17 28.95,-59.85 50.85,-83.05 44.85,-48.51 104.3,-72.76 178.37,-72.76 26.58,0 49.53,4.48 68.83,13.44l133.8 -13.44 -57.9 308.47c-1.57,6.33 -2.35,15.29 -2.35,26.9 0,11.6 3.39,21.09 10.17,28.47 7.31,7.37 16.18,11.6 26.61,12.65 -5.21,17.93 -17.48,32.17 -36.78,42.71 -18.77,10.55 -38.85,15.82 -60.23,15.82 -21.38,0 -39.39,-4.22 -53.99,-12.66 -14.09,-7.91 -23.2,-18.72 -27.37,-32.43 -8.35,13.19 -21.4,23.99 -39.12,32.43 -17.73,8.44 -38.6,12.66 -62.59,12.66 -23.47,0 -44.85,-3.16 -64.15,-9.5 -19.3,-6.33 -35.21,-16.34 -47.72,-30.05zm165.07 -321.13c-5.74,9.49 -11.22,22.41 -16.43,38.76 -5.21,15.82 -12.25,45.35 -21.12,88.59 -8.34,42.71 -12.52,79.36 -12.52,109.94 0,30.59 2.35,50.36 7.04,59.33 4.69,8.96 11.22,13.44 19.56,13.44 16.69,0 31.03,-7.91 43.02,-23.73 12.52,-16.35 21.12,-38.76 25.82,-67.24l41.46 -231.74c-10.95,-9.5 -22.94,-14.24 -35.97,-14.24 -12.52,0 -22.69,2.11 -30.52,6.33 -7.3,4.21 -14.09,11.07 -20.34,20.56z"/>
   <path class="fil1" d="M2576.27 821.19c-16.17,39.55 -50.06,59.33 -101.69,59.33 -26.08,0 -47.46,-9.23 -64.16,-27.69 -13.56,-15.29 -20.34,-31.64 -20.34,-49.04 0,-39.55 9.14,-102.56 27.38,-189.04l57.12 -303.72 158.81 -15.82 -75.89 400.23c-8.86,39.02 -13.31,65.38 -13.31,79.09 0,30.06 10.7,45.62 32.08,46.67z"/>
   <path class="fil1" d="M2662.5 374.31c7.3,-14.77 18.79,-26.1 34.42,-34.02 16.17,-8.43 35.21,-12.65 57.12,-12.65 34.41,0 61.8,12.65 82.14,37.96 20.87,24.78 31.29,64.6 31.29,119.44l0 282.36 179.15 -423.94 92.31 0 21.12 400.22 -2.33 22.94 186.19 -423.16 107.18 0 -250.34 521.23 -166.65 0 -15.64 -240.45 -103.26 240.45 -188.56 0 -23.45 -379.65c-1.57,-28.47 -6.27,-51.94 -14.09,-70.39 -7.31,-18.99 -16.17,-32.43 -26.61,-40.34z"/>
   <path class="fil1" d="M3438.3 840.97c-12.01,-13.71 -20.87,-31.38 -26.61,-52.99 -5.21,-21.62 -7.82,-50.09 -7.82,-85.42 0,-35.34 6,-69.08 17.99,-101.25 11.99,-32.17 28.94,-59.85 50.85,-83.05 44.85,-48.51 104.32,-72.76 178.36,-72.76 26.61,0 49.55,4.48 68.86,13.44l133.77 -13.44 -57.89 308.47c-1.57,6.33 -2.35,15.29 -2.35,26.9 0,11.6 3.4,21.09 10.17,28.47 7.31,7.37 16.17,11.6 26.62,12.65 -5.24,17.93 -17.48,32.17 -36.79,42.71 -18.77,10.55 -38.85,15.82 -60.23,15.82 -21.4,0 -39.38,-4.22 -53.98,-12.66 -14.09,-7.91 -23.22,-18.72 -27.39,-32.43 -8.35,13.19 -21.38,23.99 -39.11,32.43 -17.74,8.44 -38.6,12.66 -62.59,12.66 -23.48,0 -44.85,-3.16 -64.16,-9.5 -19.3,-6.33 -35.21,-16.34 -47.71,-30.05zm165.06 -321.13c-5.74,9.49 -11.2,22.41 -16.44,38.76 -5.21,15.82 -12.24,45.35 -21.12,88.59 -8.32,42.71 -12.5,79.36 -12.5,109.94 0,30.59 2.33,50.36 7.04,59.33 4.7,8.96 11.2,13.44 19.55,13.44 16.7,0 31.04,-7.91 43.03,-23.73 12.52,-16.35 21.12,-38.76 25.82,-67.24l41.46 -231.74c-10.95,-9.5 -22.95,-14.24 -36,-14.24 -12.52,0 -22.68,2.11 -30.51,6.33 -7.3,4.21 -14.09,11.07 -20.34,20.56z"/>
   <path class="fil1" d="M4082.87 821.19c-16.17,39.55 -50.07,59.33 -101.69,59.33 -26.08,0 -47.48,-9.23 -64.16,-27.69 -13.56,-15.29 -20.34,-31.64 -20.34,-49.04 0,-39.55 9.11,-102.56 27.37,-189.04l57.12 -303.72 158.81 -15.82 -75.89 400.23c-8.87,39.02 -13.3,65.38 -13.3,79.09 0,30.06 10.7,45.62 32.08,46.67z"/>
   <path class="fil1" d="M4336.5 821.19c-16.16,39.55 -50.06,59.33 -101.69,59.33 -26.08,0 -47.45,-9.23 -64.15,-27.69 -13.56,-15.29 -20.34,-31.64 -20.34,-49.04 0,-39.55 9.13,-102.56 27.37,-189.04l57.12 -303.72 158.82 -15.82 -75.89 400.23c-8.87,39.02 -13.3,65.38 -13.3,79.09 0,30.06 10.7,45.62 32.07,46.67z"/>
   <path class="fil1" d="M4720.02 731.03c13.04,8.96 19.55,23.46 19.55,43.5 0,19.51 -4.96,35.59 -14.85,48.25 -9.92,12.65 -22.97,23.2 -39.13,31.64 -33.37,17.4 -68.05,26.1 -104.05,26.1 -35.97,0 -64.66,-3.96 -86.06,-11.87 -20.85,-7.91 -38.32,-19.24 -52.42,-34.01 -27.65,-27.95 -41.46,-67.49 -41.46,-118.65 0,-79.63 21.38,-143.69 64.16,-192.2 45.89,-52.2 108.75,-78.3 188.53,-78.3 49.56,0 86.58,10.55 111.1,31.64 18.24,15.82 27.37,36.65 27.37,62.48 0,92.81 -79.28,139.21 -237.81,139.21 -2.1,13.71 -3.14,26.37 -3.14,37.97 0,24.25 5.21,41.13 15.64,50.61 10.95,8.97 26.35,13.45 46.16,13.45 19.83,0 40.17,-4.48 61.02,-13.45 21.4,-9.49 36.52,-21.61 45.38,-36.38zm-159.6 -86.22c37.03,0 66.25,-11.6 87.62,-34.8 21.38,-22.15 32.08,-50.89 32.08,-86.22 0,-12.13 -2.35,-21.36 -7.03,-27.68 -4.17,-6.85 -10.7,-10.28 -19.58,-10.28 -8.86,0 -17.2,1.84 -25.02,5.53 -7.3,3.16 -14.87,10.55 -22.68,22.15 -19.31,26.36 -34.43,70.13 -45.39,131.3z"/>
   <path class="fil1" d="M4832.07 785.6c0,-14.24 3.64,-39.28 10.95,-75.14l41.46 -213.56 -46.16 0 3.13 -23.73c62.59,-18.99 124.13,-51.67 184.64,-98.07l37.54 0 -18.77 86.21 61.02 0 -7.03 35.59 -60.26 0 -39.89 213.56c-6.78,32.69 -10.17,54.58 -10.17,65.65 0,25.31 10.95,40.6 32.85,45.87 -5.21,17.93 -17.2,32.17 -35.99,42.71 -18.77,10.55 -41.46,15.82 -68.05,15.82 -26.62,0 -47.46,-8.44 -62.59,-25.31 -15.13,-16.87 -22.69,-40.08 -22.69,-69.61z"/>
  </g>
 </g>
</svg>
